<mxfile host="app.diagrams.net" agent="Mozilla/5.0 (Windows NT 10.0; Win64; x64) AppleWebKit/537.36 (KHTML, like Gecko) Chrome/137.0.0.0 Safari/537.36" version="27.1.1">
  <diagram name="第 1 页" id="VOpmgVEXg-oSk0ZmS-H0">
    <mxGraphModel dx="914" dy="637" grid="1" gridSize="10" guides="1" tooltips="1" connect="1" arrows="1" fold="1" page="1" pageScale="1" pageWidth="827" pageHeight="1169" math="0" shadow="0">
      <root>
        <mxCell id="0" />
        <mxCell id="1" parent="0" />
        <mxCell id="aShC4JNPMhtuTAqiujVa-4" style="edgeStyle=orthogonalEdgeStyle;rounded=0;orthogonalLoop=1;jettySize=auto;html=1;exitX=0;exitY=0.5;exitDx=0;exitDy=0;" edge="1" parent="1" source="aShC4JNPMhtuTAqiujVa-1" target="aShC4JNPMhtuTAqiujVa-3">
          <mxGeometry relative="1" as="geometry" />
        </mxCell>
        <mxCell id="aShC4JNPMhtuTAqiujVa-5" value="子接口：vlan id 100" style="edgeLabel;html=1;align=center;verticalAlign=middle;resizable=0;points=[];" vertex="1" connectable="0" parent="aShC4JNPMhtuTAqiujVa-4">
          <mxGeometry x="0.0909" y="-2" relative="1" as="geometry">
            <mxPoint x="2" y="1" as="offset" />
          </mxGeometry>
        </mxCell>
        <mxCell id="aShC4JNPMhtuTAqiujVa-6" style="edgeStyle=orthogonalEdgeStyle;rounded=0;orthogonalLoop=1;jettySize=auto;html=1;" edge="1" parent="1" source="aShC4JNPMhtuTAqiujVa-1" target="aShC4JNPMhtuTAqiujVa-2">
          <mxGeometry relative="1" as="geometry" />
        </mxCell>
        <mxCell id="aShC4JNPMhtuTAqiujVa-7" value="子接口：vlan id 101" style="edgeLabel;html=1;align=center;verticalAlign=middle;resizable=0;points=[];" vertex="1" connectable="0" parent="aShC4JNPMhtuTAqiujVa-6">
          <mxGeometry x="-0.0558" relative="1" as="geometry">
            <mxPoint as="offset" />
          </mxGeometry>
        </mxCell>
        <mxCell id="aShC4JNPMhtuTAqiujVa-1" value="br-vlan" style="rounded=0;whiteSpace=wrap;html=1;" vertex="1" parent="1">
          <mxGeometry x="350" y="190" width="120" height="60" as="geometry" />
        </mxCell>
        <mxCell id="aShC4JNPMhtuTAqiujVa-2" value="br-vlan.101" style="rounded=0;whiteSpace=wrap;html=1;" vertex="1" parent="1">
          <mxGeometry x="540" y="290" width="120" height="60" as="geometry" />
        </mxCell>
        <mxCell id="aShC4JNPMhtuTAqiujVa-3" value="br-vlan.100" style="rounded=0;whiteSpace=wrap;html=1;" vertex="1" parent="1">
          <mxGeometry x="160" y="300" width="120" height="60" as="geometry" />
        </mxCell>
        <mxCell id="aShC4JNPMhtuTAqiujVa-11" style="edgeStyle=orthogonalEdgeStyle;rounded=0;orthogonalLoop=1;jettySize=auto;html=1;" edge="1" parent="1" source="aShC4JNPMhtuTAqiujVa-10" target="aShC4JNPMhtuTAqiujVa-1">
          <mxGeometry relative="1" as="geometry" />
        </mxCell>
        <mxCell id="aShC4JNPMhtuTAqiujVa-12" value="生成" style="edgeLabel;html=1;align=center;verticalAlign=middle;resizable=0;points=[];" vertex="1" connectable="0" parent="aShC4JNPMhtuTAqiujVa-11">
          <mxGeometry x="-0.0168" y="-3" relative="1" as="geometry">
            <mxPoint as="offset" />
          </mxGeometry>
        </mxCell>
        <mxCell id="aShC4JNPMhtuTAqiujVa-10" value="ip link add br-vlan type bridge" style="text;html=1;align=center;verticalAlign=middle;whiteSpace=wrap;rounded=0;" vertex="1" parent="1">
          <mxGeometry x="300" y="100" width="220" height="30" as="geometry" />
        </mxCell>
        <mxCell id="aShC4JNPMhtuTAqiujVa-15" style="edgeStyle=orthogonalEdgeStyle;rounded=0;orthogonalLoop=1;jettySize=auto;html=1;entryX=0;entryY=0.5;entryDx=0;entryDy=0;" edge="1" parent="1" source="aShC4JNPMhtuTAqiujVa-13" target="aShC4JNPMhtuTAqiujVa-3">
          <mxGeometry relative="1" as="geometry" />
        </mxCell>
        <mxCell id="aShC4JNPMhtuTAqiujVa-18" value="生成" style="edgeLabel;html=1;align=center;verticalAlign=middle;resizable=0;points=[];" vertex="1" connectable="0" parent="aShC4JNPMhtuTAqiujVa-15">
          <mxGeometry x="-0.2877" y="-2" relative="1" as="geometry">
            <mxPoint as="offset" />
          </mxGeometry>
        </mxCell>
        <mxCell id="aShC4JNPMhtuTAqiujVa-13" value="ip link add link br-vlan name br-vlan.100 type vlan id 100" style="text;html=1;align=center;verticalAlign=middle;whiteSpace=wrap;rounded=0;" vertex="1" parent="1">
          <mxGeometry x="30" y="160" width="220" height="30" as="geometry" />
        </mxCell>
        <mxCell id="aShC4JNPMhtuTAqiujVa-14" value="ip link add link br-vlan name br-vlan.101 type vlan id 101" style="text;html=1;align=center;verticalAlign=middle;whiteSpace=wrap;rounded=0;" vertex="1" parent="1">
          <mxGeometry x="610" y="150" width="220" height="30" as="geometry" />
        </mxCell>
        <mxCell id="aShC4JNPMhtuTAqiujVa-16" style="edgeStyle=orthogonalEdgeStyle;rounded=0;orthogonalLoop=1;jettySize=auto;html=1;entryX=1;entryY=0.5;entryDx=0;entryDy=0;" edge="1" parent="1" source="aShC4JNPMhtuTAqiujVa-14" target="aShC4JNPMhtuTAqiujVa-2">
          <mxGeometry relative="1" as="geometry" />
        </mxCell>
        <mxCell id="aShC4JNPMhtuTAqiujVa-17" value="生成" style="edgeLabel;html=1;align=center;verticalAlign=middle;resizable=0;points=[];" vertex="1" connectable="0" parent="aShC4JNPMhtuTAqiujVa-16">
          <mxGeometry x="-0.2902" relative="1" as="geometry">
            <mxPoint as="offset" />
          </mxGeometry>
        </mxCell>
      </root>
    </mxGraphModel>
  </diagram>
</mxfile>
